PathFileType	4	(X/Y/Z)	D:\TRACE\v60_Jaco2_6-2-23\JustBodyDRS_Motion1_9-v60.trc
DataRate	CameraRate	NumFrames	NumMarkers	Units	OrigDataRate	OrigDataStartFrame	OrigNumFrames
100.00	100.00	      20	9	mm	100.00	5912	      6756
Frame#	Time	front left toe			Front right toe			aft left toe			aft right toe			Arm			FL body			FR body			AL Body			AR Body			
		X1	Y1	Z1	X2	Y2	Z2	X3	Y3	Z3	X4	Y4	Z4	X5	Y5	Z5	X6	Y6	Z6	X7	Y7	Z7	X8	Y8	Z8	X9	Y9	Z9	

5912	59.110	-196.70880	116.75349	-284.94037	185.09647	14.65084	-293.14496	-185.51704	16.30509	341.12326	201.58914	107.12978	327.57367	-113.58221	1213.30725	-410.12180	-86.42425	581.44702	-423.43011	73.82329	582.01929	-427.49875	-60.17922	552.82874	522.20789	96.45673	547.02295	518.48834	
5913	59.120	-195.68718	109.36284	-286.12823	185.56157	14.50836	-293.29620	-184.77206	16.48155	341.04544	203.64339	99.48673	325.93188	-112.76423	1213.05664	-410.84024	-85.32564	581.35614	-423.52301	74.60814	582.02539	-427.90045	-59.05414	552.73029	521.94830	96.84956	546.80011	517.80920	
5914	59.130	-195.24496	101.83448	-286.81143	186.47440	14.40007	-293.41968	-183.86835	16.24499	340.83737	205.23868	91.03890	324.27057	-111.86546	1212.77161	-410.96832	-84.08835	581.02734	-423.51361	76.21743	581.59741	-428.13666	-57.45052	553.13135	521.82471	98.12665	546.86798	517.67804	
5915	59.140	-193.99046	93.79333	-287.44626	187.31154	14.21490	-293.45618	-183.14841	16.54865	340.92368	207.18781	82.90581	323.22614	-110.11965	1212.84631	-410.73697	-82.51861	580.82361	-423.27982	76.81956	581.50958	-427.99719	-57.03279	553.07965	521.82343	99.16928	546.90045	517.62512	
5916	59.150	-192.94221	84.89397	-287.64340	187.83347	13.73464	-293.53592	-182.57582	16.88710	340.93298	208.73872	74.61884	322.82590	-109.15820	1212.85156	-411.50125	-81.56627	580.63165	-423.44684	78.11488	581.40979	-428.42136	-55.59879	552.96326	521.67773	100.32787	546.90527	517.50562	
5917	59.160	-191.99684	76.10034	-287.19125	188.34602	13.70037	-293.73044	-181.79950	17.03662	340.83038	209.99098	66.41458	322.34268	-107.06818	1213.05579	-411.34360	-80.42467	580.50641	-423.50110	79.01844	581.23279	-428.66592	-54.71853	552.75262	521.44757	101.54856	546.94849	517.30151	
5918	59.170	-191.14850	67.29490	-286.67682	188.85832	13.47447	-293.90741	-180.79535	17.01818	340.77954	211.58293	58.27308	322.37659	-105.92684	1213.13623	-412.08539	-80.76667	581.00116	-424.21744	79.83943	580.88721	-428.34506	-53.06972	552.78485	521.38275	102.61710	547.02625	517.09308	
5919	59.180	-190.41345	59.31878	-285.96988	189.70480	13.44323	-293.89880	-180.29776	17.11608	340.86935	212.87677	50.08357	322.18356	-104.61835	1212.88110	-412.16260	-79.18307	580.60913	-424.13464	80.39890	580.66644	-428.66202	-52.10077	553.06738	521.38580	103.78514	546.90234	516.92780	
5920	59.190	-189.96112	51.87270	-285.45078	190.37122	13.21990	-293.94025	-179.65836	17.08683	340.79501	214.12083	42.81377	322.35422	-103.65108	1212.65808	-412.65759	-78.48871	580.43512	-424.12659	81.95807	580.62891	-429.07892	-50.65578	552.87213	521.27191	104.86425	546.79248	516.80334	
5921	59.200	-189.18306	44.96046	-285.03317	190.88937	12.77864	-294.20999	-178.98851	17.57551	340.67392	215.26230	35.90655	322.75604	-102.33089	1212.44141	-412.63254	-76.96191	580.38373	-424.10641	82.90623	580.54120	-429.17194	-49.73015	552.84448	521.28406	106.39267	546.67578	516.64594	
5922	59.210	-188.17842	38.61544	-284.62262	191.42450	12.60746	-294.18591	-178.27422	17.74912	340.54965	215.86023	29.59678	323.07819	-101.36221	1212.36353	-412.89444	-76.17327	580.21741	-424.35532	83.25447	580.20929	-429.09973	-47.79725	553.18304	520.84790	108.12175	546.58313	516.18951	
5923	59.220	-187.57024	32.65923	-284.45041	191.82376	12.46856	-294.22983	-177.88400	17.81062	340.33682	217.15315	23.64113	323.23508	-99.93839	1212.29053	-413.00598	-75.77633	580.25763	-424.78406	84.48885	579.97388	-429.37851	-46.70516	553.24585	520.65131	108.88877	546.68646	516.12878	
5924	59.230	-186.61455	25.82788	-284.36557	192.52304	12.31585	-294.37030	-177.13121	18.05266	340.38925	218.63092	23.68166	320.50317	-98.53996	1212.37781	-413.07471	-74.55740	580.11530	-424.72827	85.39509	579.58173	-429.45834	-45.59242	553.37799	520.51996	110.54700	546.78320	515.92352	
5925	59.240	-185.62073	18.83680	-284.27966	193.14572	12.24970	-294.24380	-176.58173	18.54402	340.55484	219.70189	21.65208	320.89786	-97.19446	1212.27478	-413.34787	-73.55227	579.47943	-424.80084	86.32749	579.39294	-429.61551	-44.47032	554.34052	520.47913	111.59560	547.77216	515.86230	
5926	59.250	-185.74425	17.99010	-286.32849	193.66670	12.07532	-294.24551	-176.09285	18.73498	340.52063	220.04163	21.84224	320.90131	-95.61886	1212.27808	-413.98828	-71.49519	578.65210	-424.61996	87.85346	579.16809	-430.05316	-43.17672	555.59723	520.17639	112.89506	549.34399	515.77228	
5927	59.260	-185.94707	15.32445	-285.89124	194.20847	11.92000	-294.26404	-175.16060	19.07723	340.27994	220.16245	22.34857	321.22073	-96.23050	1211.64380	-414.72687	-71.57416	579.88202	-425.25787	89.12323	579.36865	-430.11829	-42.46791	556.75256	520.30139	113.77411	550.20569	515.83582	
5928	59.270	-185.85278	15.88882	-286.01611	194.37717	13.06272	-294.76025	-174.86380	20.92485	339.94846	220.25690	22.15118	321.91870	-94.38340	1212.42126	-416.61697	-70.20705	581.68414	-425.37570	90.08057	580.30194	-429.91840	-40.98252	557.30109	520.32581	115.15890	550.37213	515.77454	
5929	59.280	-184.14430	15.34130	-286.01920	191.92607	15.93935	-293.08087	-173.16315	23.30255	340.85254	220.54529	21.38121	321.03107	-93.59568	1212.61682	-417.62375	-68.96819	582.75458	-425.28839	91.28145	581.74689	-429.99393	-40.36920	557.20465	520.07935	116.17110	550.23077	515.60919	
5930	59.290	-183.75787	15.38912	-286.37509	190.23285	20.26148	-289.50909	-169.86440	26.17664	342.84781	220.93643	21.54893	320.87540	-91.78206	1213.33240	-417.10339	-68.08223	583.65198	-426.03110	92.38390	582.98590	-430.95172	-39.11374	556.94543	519.57855	117.33934	550.49091	515.27722	
5931	59.300	-184.00948	15.13322	-286.96719	190.33586	28.65589	-287.63934	-165.19070	34.54243	342.51450	221.24223	21.74588	320.71378	-89.09959	1215.48572	-416.11185	-66.94984	583.39484	-426.32184	93.25222	582.84906	-431.40924	-37.82531	557.54535	519.35406	118.13754	551.08466	514.69470	
